<?xml version="1.0" encoding="UTF-8"?>
<svg width="200" height="200" viewBox="0 0 200 200" fill="none" xmlns="http://www.w3.org/2000/svg">
  <!-- Heart shape -->
  <path d="M100 180C100 180 180 130 180 80C180 50 150 30 120 30C100 30 100 50 100 50C100 50 100 30 80 30C50 30 20 50 20 80C20 130 100 180 100 180Z" fill="#F472B6"/>
  
  <!-- Hanger -->
  <path d="M100 50C100 50 100 30 80 30C50 30 20 50 20 80C20 130 100 180 100 180" stroke="#4F46E5" stroke-width="8" stroke-linecap="round"/>
  
  <!-- Hook -->
  <path d="M100 30C100 30 100 10 120 10C130 10 140 15 145 25" stroke="#4F46E5" stroke-width="8" stroke-linecap="round"/>
</svg> 